<svg id="svg" version="1.1" xmlns="http://www.w3.org/2000/svg" xmlns:xlink="http://www.w3.org/1999/xlink" width="400" height="263.09751434034416" viewBox="0, 0, 400,263.09751434034416"><g id="svgg"><path id="path0" d="M217.340 46.697 C 208.749 49.067,205.867 59.880,212.160 66.133 C 218.766 72.697,230.184 69.079,231.878 59.886 C 233.385 51.707,225.410 44.472,217.340 46.697 M192.721 68.146 C 178.517 69.781,168.874 81.097,173.671 90.501 C 176.729 96.495,184.529 97.329,196.316 92.924 C 206.885 88.975,212.094 88.555,217.473 91.221 C 225.947 95.419,224.246 105.876,214.407 110.068 C 211.957 111.112,209.604 111.840,208.661 111.846 C 208.312 111.848,207.862 111.954,207.662 112.081 C 206.396 112.883,211.804 113.208,214.616 112.499 C 222.547 110.501,228.403 102.776,228.417 94.294 C 228.444 78.155,211.784 65.952,192.721 68.146 M198.775 69.119 C 200.867 69.247,201.579 69.381,201.579 69.645 C 201.579 69.840,201.757 70.000,201.974 70.000 C 202.450 70.000,202.503 70.697,202.039 70.863 C 201.848 70.931,201.808 71.078,201.944 71.214 C 202.080 71.350,202.226 71.310,202.295 71.118 C 202.531 70.457,203.158 70.778,203.158 71.560 C 203.158 71.984,203.336 72.508,203.553 72.726 C 204.007 73.180,204.080 73.947,203.669 73.947 C 203.515 73.947,203.478 74.090,203.585 74.263 C 203.736 74.507,203.806 74.504,203.890 74.252 C 204.044 73.788,204.737 74.394,204.737 74.994 C 204.737 75.545,202.515 75.789,197.507 75.789 C 191.456 75.789,183.740 77.339,179.017 79.502 C 178.103 79.921,177.269 80.266,177.164 80.269 C 177.060 80.272,176.326 80.678,175.535 81.171 C 173.554 82.404,173.068 81.815,174.239 79.601 C 178.105 72.290,187.186 68.410,198.775 69.119 M237.368 97.909 C 233.115 98.403,228.558 103.544,227.353 109.211 C 227.245 109.717,227.035 110.487,226.886 110.921 C 226.583 111.806,226.138 113.882,225.786 116.053 C 225.343 118.788,224.388 122.982,223.960 124.079 C 222.910 126.770,222.632 127.555,222.632 127.834 C 222.632 128.012,222.513 128.158,222.368 128.158 C 222.224 128.158,222.105 128.286,222.105 128.442 C 222.105 128.897,220.312 131.473,219.120 132.728 C 217.039 134.921,212.804 137.105,210.633 137.105 C 208.844 137.105,203.947 134.095,203.947 132.995 C 203.947 132.795,203.850 132.632,203.731 132.632 C 203.465 132.632,202.368 130.481,202.368 129.958 C 202.368 129.750,202.220 129.431,202.039 129.250 C 201.289 128.499,201.678 120.971,202.612 118.181 C 203.867 114.430,202.655 114.717,200.677 118.639 C 194.884 130.126,202.008 142.642,216.122 145.774 C 228.904 148.611,244.934 137.645,249.813 122.725 C 254.305 108.990,248.122 96.660,237.368 97.909 M182.763 98.837 C 165.724 102.957,158.971 122.571,168.449 140.412 C 175.613 153.897,190.624 160.031,198.481 152.682 C 204.815 146.757,202.157 138.672,190.789 129.288 C 187.433 126.517,183.919 122.926,182.575 120.891 C 172.442 105.559,187.445 95.225,200.519 108.530 C 203.314 111.375,203.429 110.075,200.741 106.018 C 197.394 100.966,188.558 97.436,182.763 98.837 M248.261 103.639 C 250.616 107.370,251.509 114.548,250.182 119.079 C 248.665 124.255,246.598 128.638,244.934 130.209 C 244.681 130.448,244.474 130.735,244.474 130.848 C 244.474 132.053,238.017 132.809,237.105 131.711 C 236.925 131.493,236.891 131.316,237.029 131.316 C 237.168 131.316,237.286 130.990,237.292 130.592 C 237.298 130.184,237.837 129.066,238.528 128.026 C 243.169 121.054,246.316 111.521,246.316 104.436 C 246.316 101.813,246.946 101.555,248.261 103.639 M146.628 114.768 C 140.734 115.748,136.340 122.020,137.352 128.006 C 139.276 139.381,154.529 141.536,159.409 131.123 C 163.415 122.575,156.084 113.195,146.628 114.768 M200.186 122.957 C 200.123 123.285,200.069 123.079,200.066 122.500 C 200.063 121.921,200.115 121.653,200.181 121.905 C 200.247 122.156,200.249 122.630,200.186 122.957 M172.663 131.645 C 172.680 131.826,172.680 132.063,172.663 132.171 C 172.646 132.280,172.756 132.368,172.908 132.368 C 173.061 132.368,173.309 132.724,173.460 133.158 C 173.612 133.592,173.843 133.947,173.973 133.947 C 174.104 133.947,174.211 134.084,174.211 134.252 C 174.211 134.743,177.295 139.658,179.276 142.324 C 182.422 146.560,187.840 151.530,191.645 153.672 C 193.889 154.936,193.884 154.948,190.885 155.399 C 187.013 155.981,180.664 153.499,176.762 149.877 C 176.211 149.366,175.648 148.947,175.512 148.947 C 175.375 148.947,175.259 148.859,175.253 148.750 C 175.248 148.641,174.595 147.843,173.803 146.976 C 173.011 146.108,172.297 145.191,172.217 144.936 C 172.136 144.682,171.973 144.474,171.855 144.474 C 171.737 144.474,171.565 144.266,171.474 144.013 C 171.287 143.495,170.776 142.604,170.360 142.068 C 170.208 141.871,169.874 141.178,169.619 140.526 C 169.364 139.875,169.032 139.046,168.881 138.684 C 168.730 138.322,168.634 137.701,168.666 137.303 C 168.709 136.765,168.605 136.579,168.260 136.579 C 167.882 136.579,167.937 136.433,168.553 135.789 C 169.038 135.283,169.375 135.104,169.491 135.291 C 169.622 135.504,169.720 135.504,169.851 135.291 C 169.950 135.131,169.906 135.000,169.752 135.000 C 169.599 135.000,169.474 134.822,169.474 134.605 C 169.474 134.136,170.173 134.072,170.325 134.527 C 170.407 134.772,170.473 134.772,170.625 134.527 C 170.733 134.353,170.695 134.211,170.542 134.211 C 170.046 134.211,170.246 133.462,170.921 132.787 C 171.283 132.425,171.579 131.946,171.579 131.722 C 171.579 131.238,172.617 131.163,172.663 131.645 M241.155 143.023 C 229.546 145.549,228.775 161.882,240.090 165.565 C 246.674 167.707,253.898 163.184,255.056 156.194 C 256.365 148.292,249.003 141.316,241.155 143.023 M54.605 212.797 C 50.406 213.807,48.810 220.140,51.960 223.290 C 55.912 227.241,62.632 224.531,62.632 218.986 C 62.632 214.800,58.744 211.802,54.605 212.797 M96.277 212.791 C 95.305 213.087,95.116 224.737,96.083 224.737 C 96.211 224.737,96.318 224.352,96.320 223.882 C 96.335 220.428,99.964 220.511,102.051 224.013 C 102.288 224.411,102.693 224.737,102.951 224.737 C 103.601 224.737,103.544 224.466,102.639 223.271 C 101.590 221.884,101.637 221.234,102.895 219.806 C 106.209 216.041,101.613 211.170,96.277 212.791 M155.000 212.791 C 147.403 215.687,149.912 226.715,157.792 225.062 C 164.961 223.558,164.393 213.100,157.121 212.729 C 156.172 212.681,155.217 212.709,155.000 212.791 M191.602 212.808 C 186.251 213.945,185.555 221.896,190.574 224.534 C 192.532 225.563,196.639 225.066,197.047 223.750 C 197.183 223.311,196.346 223.347,195.526 223.816 C 191.537 226.096,186.511 220.839,188.658 216.631 C 190.176 213.654,192.289 213.041,196.513 214.351 C 197.438 214.638,197.247 213.900,196.248 213.324 C 195.389 212.829,192.836 212.545,191.602 212.808 M209.408 212.916 C 208.664 213.349,208.709 224.591,209.456 224.991 C 210.242 225.411,215.921 225.344,216.281 224.910 C 216.767 224.325,216.344 224.211,213.691 224.211 C 210.586 224.211,210.243 224.016,210.064 222.154 C 209.860 220.025,210.357 219.474,212.485 219.474 C 214.452 219.474,215.021 219.308,214.824 218.794 C 214.720 218.524,214.196 218.421,212.917 218.421 C 210.503 218.421,210.132 218.113,210.132 216.114 C 210.132 213.863,210.358 213.684,213.207 213.684 C 215.620 213.684,216.996 213.320,216.286 212.870 C 215.779 212.549,209.971 212.588,209.408 212.916 M270.575 213.105 C 270.299 213.351,269.920 213.967,269.733 214.474 C 269.546 214.980,268.650 217.171,267.742 219.342 C 265.755 224.093,265.567 224.737,266.162 224.737 C 266.399 224.737,266.699 224.456,266.829 224.114 C 267.731 221.740,273.925 221.542,275.167 223.847 C 275.430 224.336,275.850 224.737,276.098 224.737 C 276.667 224.737,276.387 223.879,273.820 217.763 C 272.848 215.447,271.996 213.414,271.927 213.244 C 271.708 212.706,271.095 212.643,270.575 213.105 M286.897 212.810 C 286.236 213.075,287.136 213.684,288.190 213.684 C 290.134 213.684,290.263 214.043,290.263 219.441 C 290.263 223.117,290.342 224.212,290.626 224.447 C 291.196 224.920,291.308 224.036,291.312 219.028 C 291.316 214.007,291.432 213.684,293.234 213.684 C 294.383 213.684,295.293 213.143,294.599 212.872 C 294.023 212.647,287.436 212.593,286.897 212.810 M307.632 212.899 C 307.060 213.274,307.743 213.675,308.963 213.680 C 310.857 213.688,310.905 213.824,311.053 219.497 C 311.141 222.903,311.281 224.595,311.480 224.661 C 311.977 224.825,312.098 223.735,312.102 219.054 C 312.106 214.115,312.238 213.684,313.754 213.684 C 314.939 213.684,316.039 213.148,315.395 212.884 C 314.643 212.576,308.104 212.589,307.632 212.899 M328.092 212.813 C 327.839 212.879,327.622 213.073,327.610 213.243 C 327.325 217.408,327.577 224.572,328.020 224.897 C 328.629 225.341,333.704 225.412,334.498 224.987 C 335.477 224.463,334.698 224.211,332.100 224.211 C 328.955 224.211,328.421 223.868,328.421 221.851 C 328.421 219.940,328.911 219.474,330.914 219.474 C 332.873 219.474,333.442 219.308,333.245 218.794 C 333.142 218.526,332.627 218.421,331.407 218.421 C 329.211 218.421,328.421 217.763,328.421 215.933 C 328.421 214.053,328.964 213.684,331.728 213.684 C 334.123 213.684,335.605 213.265,334.599 212.872 C 334.047 212.656,328.871 212.609,328.092 212.813 M347.284 213.017 C 346.593 213.708,346.733 224.552,347.434 224.687 C 347.822 224.762,347.895 224.572,347.895 223.481 C 347.895 220.126,350.519 220.492,353.617 224.278 C 354.865 225.805,355.124 224.928,353.947 223.158 C 352.973 221.692,352.966 221.297,353.893 220.207 C 356.203 217.491,355.988 215.082,353.277 213.306 C 352.177 212.585,347.921 212.380,347.284 213.017 M370.132 212.840 C 366.365 214.174,367.007 217.372,371.390 219.107 C 373.323 219.872,374.211 220.806,374.211 222.073 C 374.211 224.095,371.442 224.951,369.271 223.599 C 367.297 222.370,366.634 222.586,368.171 223.959 C 370.826 226.329,375.368 225.064,375.306 221.972 C 375.274 220.392,374.474 219.576,371.640 218.231 C 368.744 216.856,368.107 215.897,369.172 214.512 C 369.942 213.511,373.947 213.496,373.947 214.494 C 373.947 214.628,374.250 214.737,374.620 214.737 C 375.250 214.737,375.269 214.702,374.907 214.186 C 374.062 212.980,371.654 212.301,370.132 212.840 M30.526 213.364 C 30.526 213.622,31.310 214.895,32.267 216.193 C 34.427 219.121,34.474 219.246,34.474 222.107 C 34.474 223.537,34.587 224.513,34.766 224.623 C 35.288 224.946,35.518 224.123,35.522 221.925 C 35.527 219.248,35.679 218.852,37.777 216.033 C 39.343 213.930,39.825 212.895,39.238 212.895 C 39.108 212.895,38.664 213.317,38.251 213.832 C 37.838 214.348,37.378 214.910,37.228 215.082 C 37.079 215.254,36.696 215.765,36.378 216.218 C 35.254 217.818,34.482 217.503,32.257 214.539 C 30.991 212.854,30.526 212.538,30.526 213.364 M74.333 213.773 C 73.951 215.806,74.325 221.646,74.900 222.632 C 76.864 226.000,81.403 225.924,83.349 222.489 C 83.981 221.373,84.290 213.158,83.700 213.158 C 83.166 213.158,83.030 213.967,82.899 217.940 C 82.733 222.983,81.969 224.211,78.999 224.211 C 76.216 224.211,75.181 222.360,75.000 217.060 C 74.867 213.148,74.650 212.081,74.333 213.773 M128.947 213.277 C 128.947 213.623,129.080 214.014,129.756 215.658 C 129.874 215.947,130.227 216.836,130.539 217.632 C 131.145 219.175,131.266 219.470,132.058 221.316 C 132.338 221.967,132.726 222.952,132.921 223.503 C 133.589 225.394,134.882 225.522,135.501 223.759 C 135.801 222.904,136.828 220.355,138.024 217.500 C 138.206 217.066,138.567 216.118,138.826 215.395 C 139.085 214.671,139.396 213.966,139.517 213.829 C 139.892 213.402,139.759 212.895,139.272 212.895 C 138.944 212.895,138.620 213.381,138.174 214.539 C 137.826 215.444,137.280 216.776,136.961 217.500 C 136.642 218.224,136.120 219.467,135.801 220.263 C 134.532 223.428,133.994 223.406,132.626 220.132 C 132.324 219.408,131.968 218.579,131.835 218.289 C 131.702 218.000,131.346 217.112,131.044 216.316 C 129.837 213.137,128.947 211.848,128.947 213.277 M174.601 213.487 C 174.158 215.293,174.602 224.605,175.132 224.605 C 175.638 224.605,175.661 224.405,175.732 219.342 C 175.812 213.720,175.735 212.895,175.132 212.895 C 174.920 212.895,174.681 213.161,174.601 213.487 M241.744 213.297 C 241.449 214.066,241.555 224.428,241.860 224.616 C 242.405 224.953,242.501 224.390,242.584 220.373 C 242.708 214.437,242.865 214.431,246.430 220.210 C 247.675 222.229,248.149 221.993,250.526 218.172 C 252.764 214.575,253.148 214.927,253.154 220.577 C 253.158 224.592,253.355 225.581,253.934 224.498 C 254.229 223.948,254.323 214.527,254.045 213.487 C 253.665 212.069,252.803 212.737,250.568 216.184 C 247.739 220.545,247.908 220.563,244.639 215.526 C 243.011 213.018,242.116 212.328,241.744 213.297 M57.733 213.794 C 63.757 215.607,62.720 224.211,56.477 224.211 C 50.368 224.211,49.079 215.641,54.918 213.847 C 56.520 213.355,56.289 213.359,57.733 213.794 M159.162 214.265 C 164.039 216.564,162.006 224.223,156.524 224.206 C 151.753 224.191,149.516 218.215,153.068 214.976 C 154.793 213.404,156.830 213.166,159.162 214.265 M102.162 214.672 C 104.467 216.977,102.647 220.179,98.993 220.243 C 96.458 220.288,95.073 215.804,97.112 214.152 C 98.162 213.300,101.091 213.602,102.162 214.672 M352.368 213.953 C 355.001 214.714,355.176 218.392,352.641 219.671 C 349.507 221.253,347.895 220.293,347.895 216.847 C 347.895 213.744,349.052 212.995,352.368 213.953 M271.780 215.592 C 271.926 215.773,272.306 216.572,272.624 217.368 C 272.942 218.164,273.311 219.021,273.444 219.273 C 274.191 220.692,273.441 221.316,270.991 221.316 C 268.449 221.316,268.228 220.853,269.377 217.940 C 270.353 215.463,271.093 214.740,271.780 215.592 " stroke="none" fill="#3d53e8" fill-rule="evenodd"></path><path id="path1" d="M0.000 131.579 L 0.000 263.158 200.000 263.158 L 400.000 263.158 400.000 131.579 L 400.000 0.000 200.000 0.000 L 0.000 0.000 0.000 131.579 M225.332 46.522 C 234.895 50.907,235.325 64.279,226.053 68.941 C 215.030 74.483,203.916 62.984,209.581 51.900 C 212.404 46.379,219.634 43.910,225.332 46.522 M205.227 67.866 C 220.066 71.296,229.890 82.615,229.118 95.395 C 228.508 105.501,220.041 113.947,210.522 113.947 C 206.260 113.947,204.131 111.749,207.848 111.186 C 220.716 109.237,226.828 96.705,217.162 92.088 C 213.016 90.108,204.711 90.259,200.727 92.387 C 200.476 92.522,200.061 92.632,199.806 92.633 C 199.551 92.634,199.003 92.812,198.588 93.028 C 198.174 93.244,197.718 93.421,197.575 93.421 C 197.433 93.421,196.943 93.588,196.487 93.792 C 195.117 94.404,190.872 95.789,190.353 95.793 C 190.086 95.796,189.395 95.968,188.816 96.177 C 183.436 98.115,175.420 95.434,173.101 90.921 C 167.904 80.806,176.703 70.148,192.632 67.265 C 194.544 66.919,202.843 67.315,205.227 67.866 M242.500 97.557 C 254.455 101.341,255.171 123.440,243.713 135.034 C 243.480 135.270,242.597 136.184,241.750 137.066 C 233.531 145.618,222.097 148.873,212.237 145.467 C 203.321 142.388,198.158 135.387,198.158 126.379 C 198.158 123.354,198.256 122.803,199.294 120.000 C 201.239 114.749,205.613 111.648,203.967 116.688 C 202.767 120.361,202.632 121.122,202.632 124.211 C 202.632 130.061,204.854 134.295,208.606 135.592 C 210.064 136.096,212.242 136.206,212.500 135.789 C 212.589 135.645,212.865 135.526,213.112 135.526 C 215.791 135.526,222.632 127.881,222.632 124.887 C 222.632 124.656,222.746 124.261,222.886 124.010 C 223.206 123.436,223.952 120.552,224.230 118.816 C 224.459 117.382,225.030 114.532,225.627 111.842 C 228.141 100.505,234.583 95.052,242.500 97.557 M190.185 98.289 C 196.128 99.823,200.403 103.137,202.780 108.054 C 204.751 112.130,203.638 112.871,200.487 109.581 C 199.568 108.621,198.283 107.472,197.632 107.027 C 196.980 106.583,196.388 106.151,196.316 106.068 C 193.764 103.141,185.277 102.614,182.547 105.214 C 177.017 110.481,180.257 119.291,191.090 128.444 C 198.203 134.454,200.931 137.963,202.245 142.798 C 203.930 148.996,199.189 155.406,192.236 156.331 C 174.336 158.713,158.105 133.214,165.128 113.744 C 169.118 102.682,180.355 95.751,190.185 98.289 M152.874 114.515 C 161.557 117.481,164.095 128.627,157.547 135.036 C 147.649 144.723,131.612 133.218,137.711 120.804 C 138.504 119.188,141.088 116.053,141.626 116.053 C 141.766 116.053,142.049 115.884,142.255 115.677 C 143.952 113.981,149.524 113.371,152.874 114.515 M247.894 142.880 C 256.434 146.087,258.755 156.883,252.265 163.216 C 242.257 172.984,226.577 161.687,232.460 148.947 C 233.847 145.945,237.381 143.152,240.921 142.263 C 242.124 141.961,246.471 142.346,247.894 142.880 M154.718 173.325 C 155.470 174.282,155.579 197.281,154.838 198.842 C 154.296 199.985,152.439 200.170,151.725 199.152 C 150.972 198.076,151.123 174.055,151.888 173.241 C 152.697 172.380,154.005 172.419,154.718 173.325 M180.180 173.204 C 182.260 175.158,180.396 176.842,176.154 176.842 C 173.614 176.842,173.184 176.905,172.993 177.303 C 172.871 177.556,172.711 182.526,172.636 188.346 C 172.485 200.067,172.522 199.844,170.779 199.794 C 168.892 199.741,168.947 200.092,168.947 188.267 C 168.947 175.692,169.309 176.842,165.359 176.842 C 161.222 176.842,159.465 175.259,161.362 173.241 L 161.934 172.632 170.753 172.632 C 179.445 172.632,179.580 172.640,180.180 173.204 M205.421 172.833 C 206.480 173.540,206.497 175.779,205.449 176.378 C 205.115 176.569,203.527 176.766,201.711 176.842 L 198.553 176.974 198.421 187.789 C 198.280 199.358,198.296 199.234,196.947 199.747 C 194.555 200.656,194.364 199.803,194.211 187.500 L 194.079 176.974 190.832 176.842 C 186.626 176.672,185.213 175.420,186.861 173.325 L 187.407 172.632 196.269 172.636 C 201.143 172.638,205.262 172.727,205.421 172.833 M229.128 173.204 C 229.856 173.888,229.944 175.281,229.301 175.924 C 228.493 176.732,227.614 176.842,221.950 176.842 L 216.303 176.842 216.025 177.566 C 215.872 177.964,215.787 179.381,215.834 180.715 C 215.958 184.169,215.780 184.059,221.450 184.162 C 226.530 184.253,227.105 184.471,227.105 186.305 C 227.105 187.912,226.370 188.161,221.157 188.317 C 215.428 188.489,215.721 188.285,215.837 192.031 C 215.954 195.763,215.509 195.527,222.561 195.599 C 229.159 195.666,229.737 195.843,229.737 197.799 C 229.737 199.692,229.533 199.738,221.069 199.728 C 210.875 199.717,211.842 201.136,211.842 186.184 C 211.842 174.514,211.900 173.964,213.213 173.044 C 214.276 172.299,228.315 172.440,229.128 173.204 M249.005 173.502 C 250.523 174.247,253.421 177.079,253.421 177.817 C 253.421 178.015,253.612 178.467,253.844 178.823 C 255.402 181.200,254.057 186.505,251.190 189.289 C 249.060 191.357,249.056 191.277,251.447 194.491 C 253.072 196.673,253.420 197.314,253.417 198.111 C 253.407 200.543,251.200 200.893,249.557 198.722 C 249.158 198.195,248.651 197.565,248.429 197.323 C 248.208 197.081,247.375 195.995,246.579 194.910 C 244.729 192.389,244.066 191.986,241.754 191.979 C 239.204 191.971,238.947 192.329,238.947 195.892 C 238.947 199.139,238.661 199.737,237.105 199.737 C 235.209 199.737,235.263 200.127,235.263 186.369 L 235.263 174.170 236.052 173.381 L 236.840 172.593 242.170 172.678 C 247.397 172.762,247.529 172.777,249.005 173.502 M239.357 177.427 C 238.582 178.533,238.771 186.163,239.593 186.986 C 240.328 187.720,244.788 187.941,246.605 187.332 C 250.963 185.873,251.751 180.269,247.961 177.697 L 246.700 176.842 243.233 176.842 C 239.949 176.842,239.745 176.873,239.357 177.427 M59.340 212.511 C 61.900 213.722,63.405 216.063,63.415 218.849 C 63.447 227.653,50.782 228.522,49.350 219.813 C 48.482 214.536,54.430 210.188,59.340 212.511 M101.183 212.137 C 104.345 213.015,105.909 216.994,104.081 219.510 C 103.728 219.997,103.236 220.673,102.987 221.013 C 102.632 221.501,102.601 221.724,102.843 222.066 C 105.559 225.909,103.924 227.646,101.011 224.013 C 99.684 222.359,99.515 222.237,98.543 222.237 L 97.500 222.237 97.364 223.583 C 97.159 225.623,96.300 226.333,95.218 225.354 C 94.609 224.802,94.472 213.590,95.066 212.846 C 95.874 211.833,98.846 211.488,101.183 212.137 M131.756 216.077 C 132.650 218.162,133.521 220.200,133.692 220.605 C 134.255 221.938,134.349 221.787,137.111 215.132 C 138.262 212.360,139.086 211.456,139.870 212.106 C 140.472 212.606,140.344 213.784,139.447 216.005 C 138.999 217.117,138.106 219.329,137.464 220.921 C 135.239 226.438,133.616 227.458,132.366 224.126 C 132.193 223.666,131.952 223.053,131.831 222.763 C 131.709 222.474,131.000 220.757,130.257 218.947 C 129.513 217.138,128.798 215.456,128.668 215.209 C 128.158 214.242,128.089 212.738,128.534 212.293 C 129.453 211.374,130.032 212.053,131.756 216.077 M158.918 212.227 C 160.900 212.926,163.158 215.213,163.158 216.521 C 163.158 216.784,163.288 217.130,163.447 217.289 C 164.030 217.872,163.422 221.473,162.524 222.763 C 159.942 226.467,154.958 227.037,151.774 223.992 C 146.412 218.866,151.940 209.764,158.918 212.227 M195.578 212.250 C 197.610 212.943,198.474 214.364,197.309 215.098 C 196.974 215.309,196.631 215.288,195.994 215.016 C 192.784 213.647,189.766 214.854,188.966 217.826 C 187.906 221.761,192.116 224.728,195.977 222.769 C 197.572 221.959,198.652 223.471,197.303 224.625 C 194.887 226.691,190.801 226.301,188.373 223.772 C 183.318 218.507,188.696 209.905,195.578 212.250 M216.956 212.349 C 218.167 213.687,216.857 214.464,213.383 214.470 C 210.592 214.474,210.526 214.514,210.526 216.196 C 210.526 217.363,211.062 217.632,213.385 217.632 C 215.337 217.632,216.053 217.986,216.053 218.951 C 216.053 219.824,215.037 220.263,213.020 220.263 C 210.842 220.263,210.526 220.483,210.526 221.998 C 210.526 223.373,210.643 223.421,213.950 223.421 C 217.039 223.421,218.283 224.244,217.053 225.474 C 216.392 226.135,209.024 225.893,208.632 225.197 C 207.769 223.667,208.086 213.228,209.022 212.356 C 209.849 211.585,216.260 211.580,216.956 212.349 M245.325 215.288 C 247.290 218.185,248.163 218.947,248.504 218.059 C 249.052 216.629,252.184 212.393,252.868 212.154 C 254.591 211.554,254.737 212.092,254.737 219.037 C 254.737 225.275,254.659 225.789,253.718 225.789 C 252.580 225.789,252.368 225.085,252.368 221.291 C 252.368 216.886,252.306 216.830,250.510 219.607 C 248.231 223.131,247.450 223.125,245.084 219.565 L 243.553 217.262 243.421 221.091 C 243.287 225.001,243.075 225.789,242.160 225.789 C 240.888 225.789,240.789 225.296,240.789 218.926 L 240.789 212.933 241.464 212.402 C 242.520 211.572,243.096 212.002,245.325 215.288 M271.649 212.125 C 271.991 212.281,272.460 212.784,272.691 213.244 C 273.514 214.876,274.737 217.636,274.737 217.861 C 274.737 218.055,275.816 220.722,276.614 222.500 C 277.939 225.452,276.422 227.144,274.713 224.620 C 273.839 223.329,273.507 223.199,271.053 223.180 C 268.386 223.160,268.105 223.270,267.389 224.621 C 265.927 227.376,264.245 225.449,265.537 222.500 C 265.664 222.211,266.372 220.493,267.109 218.684 C 269.777 212.146,270.236 211.481,271.649 212.125 M295.396 212.369 C 296.199 213.258,295.592 214.134,294.027 214.344 C 293.332 214.437,292.622 214.557,292.450 214.611 C 292.226 214.681,292.114 216.165,292.055 219.845 C 291.966 225.494,291.816 226.038,290.446 225.694 C 289.475 225.451,289.394 225.043,289.230 219.608 L 289.079 214.611 287.632 214.407 C 285.653 214.127,285.060 213.361,286.053 212.368 C 286.857 211.564,294.667 211.565,295.396 212.369 M316.080 212.338 C 317.320 213.342,316.050 214.474,313.682 214.474 C 312.699 214.474,312.639 214.798,312.635 220.215 C 312.631 225.082,312.481 225.789,311.447 225.789 C 310.406 225.789,310.263 225.091,310.259 219.952 C 310.254 214.406,310.321 214.606,308.421 214.387 C 306.446 214.159,305.834 213.377,306.842 212.368 C 307.619 211.592,315.128 211.567,316.080 212.338 M335.526 212.368 C 336.151 212.993,336.169 213.161,335.685 213.824 C 335.371 214.253,334.896 214.342,332.461 214.431 C 329.423 214.542,329.221 214.633,329.215 215.900 C 329.208 217.212,329.843 217.632,331.833 217.632 C 333.994 217.632,334.647 218.055,334.505 219.366 C 334.451 219.862,333.188 220.263,331.681 220.263 C 329.678 220.263,329.211 220.562,329.211 221.842 C 329.211 223.215,329.654 223.421,332.614 223.421 C 335.341 223.421,336.252 223.887,335.819 225.060 C 335.605 225.641,335.486 225.660,331.639 225.730 L 327.680 225.803 327.130 225.103 C 326.611 224.443,326.579 224.086,326.579 218.892 L 326.579 213.381 327.348 212.611 L 328.117 211.842 331.559 211.842 C 334.649 211.842,335.054 211.896,335.526 212.368 M352.343 212.098 C 356.086 213.171,357.380 217.661,354.759 220.477 C 353.754 221.556,353.752 221.499,354.868 223.122 C 356.576 225.605,354.810 227.192,352.999 224.803 C 350.497 221.503,348.934 221.061,348.680 223.583 C 348.533 225.046,348.091 225.789,347.368 225.789 C 345.658 225.789,345.373 213.161,347.062 212.244 C 347.876 211.802,351.008 211.715,352.343 212.098 M373.623 212.249 C 374.973 212.813,375.789 213.649,375.789 214.467 C 375.789 215.874,374.861 216.147,373.529 215.132 C 372.288 214.185,370.122 214.181,369.693 215.124 C 369.283 216.022,369.699 216.455,371.969 217.492 C 376.339 219.490,377.399 222.503,374.586 224.934 C 372.316 226.896,366.579 225.455,366.579 222.923 C 366.579 221.649,367.675 221.475,369.079 222.526 C 370.642 223.696,372.788 223.683,373.422 222.499 C 373.913 221.581,373.307 220.981,370.570 219.669 C 367.063 217.988,366.042 216.037,367.526 213.852 C 368.746 212.057,371.457 211.344,373.623 212.249 M32.946 214.211 C 34.885 216.736,34.930 216.739,36.761 214.381 C 38.445 212.214,39.525 211.626,40.178 212.519 C 40.654 213.170,40.647 213.194,39.613 214.642 C 39.111 215.346,38.176 216.691,37.536 217.632 L 36.373 219.342 36.273 222.137 C 36.172 224.980,35.901 225.789,35.054 225.789 C 33.992 225.789,33.684 225.025,33.684 222.383 C 33.684 219.459,33.538 219.082,31.228 216.053 C 29.571 213.880,29.245 213.093,29.751 212.483 C 30.442 211.650,31.363 212.148,32.946 214.211 M75.713 212.895 C 75.931 213.327,76.046 214.788,76.049 217.154 C 76.054 222.239,76.579 223.289,79.111 223.289 C 81.660 223.289,82.368 221.745,82.368 216.189 C 82.368 212.701,82.517 212.105,83.387 212.105 C 85.654 212.105,85.329 222.107,82.991 224.321 C 80.101 227.056,75.573 226.161,73.923 222.527 C 73.223 220.985,73.180 213.334,73.867 212.575 C 74.453 211.927,75.299 212.074,75.713 212.895 M176.086 213.026 C 176.178 213.461,176.254 216.125,176.254 218.947 C 176.254 225.134,176.177 225.628,175.196 225.741 C 174.092 225.868,173.947 225.080,173.947 218.947 C 173.947 212.815,174.092 212.026,175.196 212.154 C 175.758 212.218,175.956 212.413,176.086 213.026 M155.567 214.426 C 153.465 214.628,151.505 217.849,152.165 220.016 C 153.226 223.496,157.304 224.552,159.850 222.006 C 163.080 218.776,160.361 213.967,155.567 214.426 M53.467 215.513 C 51.063 217.845,51.512 221.525,54.369 222.908 C 56.825 224.097,59.559 223.030,60.627 220.465 C 62.381 216.256,56.729 212.347,53.467 215.513 M97.544 214.649 C 97.083 215.110,97.363 218.926,97.877 219.201 C 100.562 220.638,103.679 217.323,101.599 215.243 C 100.845 214.488,98.106 214.087,97.544 214.649 M348.860 214.649 C 348.546 214.963,348.666 218.824,349.000 219.158 C 350.250 220.408,353.684 218.785,353.684 216.944 C 353.684 215.099,350.110 213.399,348.860 214.649 M270.729 216.902 C 270.486 217.273,270.209 217.886,270.114 218.265 C 270.019 218.643,269.836 219.017,269.708 219.097 C 268.729 219.702,269.515 220.550,270.984 220.474 C 272.845 220.376,272.931 220.135,271.915 217.879 L 271.171 216.227 270.729 216.902 " stroke="none" fill="#131433" fill-rule="evenodd"></path><path id="path2" d="M152.368 173.684 C 151.858 174.195,151.842 174.561,151.842 186.184 C 151.842 197.807,151.858 198.173,152.368 198.684 C 152.991 199.307,153.402 199.343,154.094 198.837 C 154.892 198.254,154.892 174.115,154.094 173.531 C 153.402 173.025,152.991 173.061,152.368 173.684 M162.171 173.550 C 159.829 174.568,161.517 176.053,165.017 176.053 C 167.296 176.053,168.364 176.247,168.947 176.768 C 169.020 176.832,169.138 181.668,169.211 187.515 C 169.359 199.477,169.399 199.708,171.244 199.060 L 171.974 198.803 172.105 188.152 C 172.266 175.171,171.943 176.053,176.533 176.053 C 180.063 176.053,181.676 174.692,179.487 173.559 C 178.387 172.991,163.476 172.983,162.171 173.550 M187.697 173.550 C 185.342 174.574,187.005 176.051,190.519 176.056 C 195.316 176.063,195.000 175.213,195.000 188.126 C 195.000 199.217,194.999 199.211,196.403 199.211 C 197.704 199.211,197.758 198.784,197.831 187.895 C 197.917 174.920,197.412 176.292,202.181 176.067 C 205.511 175.910,205.859 175.754,205.726 174.480 C 205.598 173.255,204.964 173.165,196.447 173.172 C 190.237 173.177,188.370 173.258,187.697 173.550 M213.684 173.619 L 212.763 174.079 212.695 186.075 C 212.627 197.994,212.630 198.075,213.182 198.575 C 214.080 199.388,227.873 199.496,228.672 198.696 C 230.473 196.895,229.343 196.466,222.399 196.316 C 214.857 196.152,215.395 196.488,215.395 191.942 C 215.395 187.466,215.178 187.632,221.031 187.632 C 225.841 187.632,226.382 187.488,226.382 186.210 C 226.382 184.965,226.067 184.874,221.500 184.794 C 215.138 184.682,215.128 184.673,215.309 179.781 C 215.453 175.891,215.152 176.054,222.200 176.049 C 228.322 176.044,229.018 175.906,229.163 174.659 C 229.315 173.346,228.290 173.158,220.995 173.158 C 215.439 173.159,214.485 173.219,213.684 173.619 M237.278 173.428 C 235.774 173.879,235.807 173.584,235.798 186.472 C 235.789 199.226,235.789 199.232,237.126 199.202 C 238.265 199.177,238.515 198.535,238.631 195.330 C 238.775 191.383,238.825 191.316,241.669 191.316 C 244.420 191.316,244.893 191.637,247.877 195.526 C 250.836 199.385,251.120 199.644,252.047 199.320 C 253.435 198.835,253.164 197.837,250.802 194.737 C 248.153 191.261,248.153 191.252,250.733 188.720 C 256.416 183.146,253.956 174.880,246.187 173.444 C 244.386 173.111,238.371 173.100,237.278 173.428 M248.040 176.981 C 252.036 179.452,252.000 184.981,247.974 187.500 C 246.738 188.273,246.640 188.289,243.253 188.289 C 238.405 188.289,238.684 188.661,238.684 182.215 L 238.684 177.143 239.408 176.574 C 240.630 175.611,246.256 175.877,248.040 176.981 " stroke="none" fill="#e0e0e4" fill-rule="evenodd"></path><path id="path3" d="M191.316 69.141 C 185.605 69.818,178.746 73.383,175.841 77.182 C 173.017 80.875,172.867 82.831,175.535 81.171 C 176.326 80.678,177.060 80.272,177.164 80.269 C 177.269 80.266,178.103 79.921,179.017 79.502 C 183.740 77.339,191.456 75.789,197.507 75.789 C 202.515 75.789,204.737 75.545,204.737 74.994 C 204.737 74.394,204.044 73.788,203.890 74.252 C 203.806 74.504,203.736 74.507,203.585 74.263 C 203.478 74.090,203.515 73.947,203.669 73.947 C 204.080 73.947,204.007 73.180,203.553 72.726 C 203.336 72.508,203.158 71.984,203.158 71.560 C 203.158 70.778,202.531 70.457,202.295 71.118 C 202.226 71.310,202.080 71.350,201.944 71.214 C 201.808 71.078,201.848 70.931,202.039 70.863 C 202.503 70.697,202.450 70.000,201.974 70.000 C 201.757 70.000,201.579 69.840,201.579 69.645 C 201.579 69.106,194.531 68.759,191.316 69.141 M246.474 102.526 C 246.387 102.753,246.316 103.612,246.316 104.436 C 246.316 111.521,243.169 121.054,238.528 128.026 C 237.837 129.066,237.298 130.184,237.292 130.592 C 237.286 130.990,237.168 131.316,237.029 131.316 C 236.891 131.316,236.925 131.493,237.105 131.711 C 238.017 132.809,244.474 132.053,244.474 130.848 C 244.474 130.735,244.681 130.448,244.934 130.209 C 246.598 128.638,248.665 124.255,250.182 119.079 C 250.778 117.043,250.846 110.279,250.290 108.289 C 249.280 104.677,246.981 101.205,246.474 102.526 M200.066 122.500 C 200.069 123.079,200.123 123.285,200.186 122.957 C 200.249 122.630,200.247 122.156,200.181 121.905 C 200.115 121.653,200.063 121.921,200.066 122.500 M171.579 131.722 C 171.579 131.946,171.283 132.425,170.921 132.787 C 170.246 133.462,170.046 134.211,170.542 134.211 C 170.695 134.211,170.733 134.353,170.625 134.527 C 170.473 134.772,170.407 134.772,170.325 134.527 C 170.173 134.072,169.474 134.136,169.474 134.605 C 169.474 134.822,169.599 135.000,169.752 135.000 C 169.906 135.000,169.950 135.131,169.851 135.291 C 169.720 135.504,169.622 135.504,169.491 135.291 C 169.375 135.104,169.038 135.283,168.553 135.789 C 167.937 136.433,167.882 136.579,168.260 136.579 C 168.605 136.579,168.709 136.765,168.666 137.303 C 168.634 137.701,168.730 138.322,168.881 138.684 C 169.032 139.046,169.364 139.875,169.619 140.526 C 169.874 141.178,170.208 141.871,170.360 142.068 C 170.776 142.604,171.287 143.495,171.474 144.013 C 171.565 144.266,171.737 144.474,171.855 144.474 C 171.973 144.474,172.136 144.682,172.217 144.936 C 172.297 145.191,173.011 146.108,173.803 146.976 C 174.595 147.843,175.248 148.641,175.253 148.750 C 175.259 148.859,175.375 148.947,175.512 148.947 C 175.648 148.947,176.211 149.366,176.762 149.877 C 180.664 153.499,187.013 155.981,190.885 155.399 C 193.884 154.948,193.889 154.936,191.645 153.672 C 187.840 151.530,182.422 146.560,179.276 142.324 C 177.295 139.658,174.211 134.743,174.211 134.252 C 174.211 134.084,174.104 133.947,173.973 133.947 C 173.843 133.947,173.612 133.592,173.460 133.158 C 173.309 132.724,173.061 132.368,172.908 132.368 C 172.756 132.368,172.646 132.280,172.663 132.171 C 172.755 131.589,172.576 131.316,172.105 131.316 C 171.806 131.316,171.579 131.491,171.579 131.722 M212.488 186.053 C 212.488 191.914,212.523 194.313,212.565 191.382 C 212.608 188.451,212.608 183.655,212.565 180.724 C 212.523 177.793,212.488 180.191,212.488 186.053 " stroke="none" fill="#4b8df2" fill-rule="evenodd"></path><path id="path4" d="M216.476 46.061 C 206.111 49.735,205.053 64.005,214.771 69.047 C 226.034 74.890,237.741 61.413,230.571 50.856 C 227.575 46.443,221.361 44.329,216.476 46.061 M223.735 46.793 C 233.163 49.904,235.064 62.150,226.933 67.407 C 216.774 73.975,204.850 63.685,209.962 52.762 C 212.264 47.843,218.597 45.098,223.735 46.793 M192.632 67.265 C 176.703 70.148,167.904 80.806,173.101 90.921 C 175.420 95.434,183.436 98.115,188.816 96.177 C 189.395 95.968,190.086 95.796,190.353 95.793 C 190.872 95.789,195.117 94.404,196.487 93.792 C 196.943 93.588,197.433 93.421,197.575 93.421 C 197.718 93.421,198.174 93.244,198.588 93.028 C 199.003 92.812,199.551 92.634,199.806 92.633 C 200.061 92.632,200.476 92.522,200.727 92.387 C 204.711 90.259,213.016 90.108,217.162 92.088 C 226.828 96.705,220.716 109.237,207.848 111.186 C 205.359 111.563,205.397 113.124,207.907 113.662 C 215.123 115.210,223.831 110.218,227.382 102.500 C 233.158 89.943,224.588 74.047,209.306 68.972 C 204.923 67.516,196.185 66.622,192.632 67.265 M204.997 68.687 C 226.529 73.514,236.067 96.257,221.802 108.759 C 218.200 111.916,210.513 114.033,207.842 112.603 C 207.190 112.255,207.625 111.853,208.661 111.846 C 209.604 111.840,211.957 111.112,214.407 110.068 C 224.246 105.876,225.947 95.419,217.473 91.221 C 212.094 88.555,206.885 88.975,196.316 92.924 C 182.996 97.902,174.881 96.199,172.739 87.977 C 169.519 75.613,187.618 64.790,204.997 68.687 M236.821 97.099 C 231.682 98.007,227.463 103.564,225.627 111.842 C 225.030 114.532,224.459 117.382,224.230 118.816 C 223.952 120.552,223.206 123.436,222.886 124.010 C 222.746 124.261,222.632 124.656,222.632 124.887 C 222.632 127.881,215.791 135.526,213.112 135.526 C 212.865 135.526,212.589 135.645,212.500 135.789 C 212.242 136.206,210.064 136.096,208.606 135.592 C 204.854 134.295,202.632 130.061,202.632 124.211 C 202.632 121.122,202.767 120.361,203.967 116.688 C 205.613 111.648,201.239 114.749,199.294 120.000 C 198.256 122.803,198.158 123.354,198.158 126.379 C 198.158 131.864,199.985 136.438,203.676 140.197 C 213.416 150.115,230.565 148.704,241.750 137.066 C 242.597 136.184,243.480 135.270,243.713 135.034 C 248.825 129.862,252.446 119.856,252.015 112.098 C 251.482 102.514,244.604 95.724,236.821 97.099 M242.368 98.345 C 253.198 102.145,254.346 119.780,244.605 132.687 C 238.075 141.339,229.368 146.053,219.917 146.053 C 204.560 146.053,194.256 131.371,200.677 118.639 C 202.655 114.717,203.867 114.430,202.612 118.181 C 201.678 120.971,201.289 128.499,202.039 129.250 C 202.220 129.431,202.368 129.750,202.368 129.958 C 202.368 130.481,203.465 132.632,203.731 132.632 C 203.850 132.632,203.947 132.795,203.947 132.995 C 203.947 134.095,208.844 137.105,210.633 137.105 C 212.804 137.105,217.039 134.921,219.120 132.728 C 220.312 131.473,222.105 128.897,222.105 128.442 C 222.105 128.286,222.224 128.158,222.368 128.158 C 222.513 128.158,222.632 128.012,222.632 127.834 C 222.632 127.555,222.910 126.770,223.960 124.079 C 224.388 122.982,225.343 118.788,225.786 116.053 C 226.138 113.882,226.583 111.806,226.886 110.921 C 227.035 110.487,227.245 109.717,227.353 109.211 C 229.089 101.050,235.944 96.090,242.368 98.345 M181.016 98.439 C 163.560 103.316,157.897 126.074,169.720 143.837 C 177.760 155.917,191.962 160.327,199.143 152.972 C 205.713 146.243,203.240 138.709,191.090 128.444 C 180.257 119.291,177.017 110.481,182.547 105.214 C 185.277 102.614,193.764 103.141,196.316 106.068 C 196.388 106.151,196.980 106.583,197.632 107.027 C 198.283 107.472,199.568 108.621,200.487 109.581 C 203.638 112.871,204.751 112.130,202.780 108.054 C 200.403 103.137,196.128 99.823,190.185 98.289 C 188.030 97.733,183.267 97.811,181.016 98.439 M191.469 99.421 C 196.310 100.946,200.261 104.294,202.177 108.496 C 203.209 110.758,202.718 110.768,200.519 108.530 C 187.445 95.225,172.442 105.559,182.575 120.891 C 183.919 122.926,187.433 126.517,190.789 129.288 C 202.157 138.672,204.815 146.757,198.481 152.682 C 190.624 160.031,175.613 153.897,168.449 140.412 C 158.971 122.571,165.724 102.957,182.763 98.837 C 184.019 98.533,189.905 98.928,191.469 99.421 M147.105 113.963 C 145.478 114.169,142.825 115.107,142.255 115.677 C 142.049 115.884,141.766 116.053,141.626 116.053 C 141.088 116.053,138.504 119.188,137.711 120.804 C 131.612 133.218,147.649 144.723,157.547 135.036 C 166.033 126.730,158.961 112.459,147.105 113.963 M150.767 114.752 C 164.756 117.021,162.997 137.763,148.816 137.757 C 133.702 137.751,133.449 115.332,148.553 114.506 C 148.842 114.491,149.838 114.601,150.767 114.752 M240.921 142.263 C 232.950 144.265,228.872 152.829,232.475 160.000 C 238.294 171.581,256.053 167.298,256.053 154.314 C 256.053 146.923,247.976 140.491,240.921 142.263 M245.886 143.028 C 255.151 145.442,258.317 155.941,251.791 162.612 C 245.726 168.812,234.885 166.186,232.455 157.928 C 229.950 149.418,237.645 140.882,245.886 143.028 M151.888 173.241 C 151.123 174.055,150.972 198.076,151.725 199.152 C 152.439 200.170,154.296 199.985,154.838 198.842 C 155.579 197.281,155.470 174.282,154.718 173.325 C 154.005 172.419,152.697 172.380,151.888 173.241 M161.362 173.241 C 159.465 175.259,161.222 176.842,165.359 176.842 C 169.309 176.842,168.947 175.692,168.947 188.267 C 168.947 200.092,168.892 199.741,170.779 199.794 C 172.522 199.844,172.485 200.067,172.636 188.346 C 172.711 182.526,172.871 177.556,172.993 177.303 C 173.184 176.905,173.614 176.842,176.154 176.842 C 179.818 176.842,180.777 176.375,180.785 174.585 C 180.795 172.659,180.654 172.632,170.753 172.632 L 161.934 172.632 161.362 173.241 M186.861 173.325 C 185.213 175.420,186.626 176.672,190.832 176.842 L 194.079 176.974 194.211 187.500 C 194.364 199.803,194.555 200.656,196.947 199.747 C 198.296 199.234,198.280 199.358,198.421 187.789 L 198.553 176.974 201.711 176.842 C 205.855 176.669,207.133 175.725,206.037 173.646 C 205.507 172.640,205.501 172.640,196.269 172.636 L 187.407 172.632 186.861 173.325 M213.213 173.044 C 211.900 173.964,211.842 174.514,211.842 186.184 C 211.842 201.136,210.875 199.717,221.069 199.728 C 229.533 199.738,229.737 199.692,229.737 197.799 C 229.737 195.843,229.159 195.666,222.561 195.599 C 215.509 195.527,215.954 195.763,215.837 192.031 C 215.721 188.285,215.428 188.489,221.157 188.317 C 226.370 188.161,227.105 187.912,227.105 186.305 C 227.105 184.471,226.530 184.253,221.450 184.162 C 215.780 184.059,215.958 184.169,215.834 180.715 C 215.787 179.381,215.872 177.964,216.025 177.566 L 216.303 176.842 221.950 176.842 C 228.804 176.842,229.737 176.577,229.737 174.632 C 229.737 172.696,229.460 172.632,221.160 172.632 C 214.905 172.632,213.713 172.693,213.213 173.044 M236.052 173.381 L 235.263 174.170 235.263 186.369 C 235.263 200.127,235.209 199.737,237.105 199.737 C 238.661 199.737,238.947 199.139,238.947 195.892 C 238.947 192.329,239.204 191.971,241.754 191.979 C 244.066 191.986,244.729 192.389,246.579 194.910 C 247.375 195.995,248.208 197.081,248.429 197.323 C 248.651 197.565,249.158 198.195,249.557 198.722 C 251.200 200.893,253.407 200.543,253.417 198.111 C 253.420 197.314,253.072 196.673,251.447 194.491 C 249.056 191.277,249.060 191.357,251.190 189.289 C 254.057 186.505,255.402 181.200,253.844 178.823 C 253.612 178.467,253.421 178.015,253.421 177.817 C 253.421 177.079,250.523 174.247,249.005 173.502 C 247.529 172.777,247.397 172.762,242.170 172.678 L 236.840 172.593 236.052 173.381 M154.094 173.531 C 154.745 174.007,155.032 197.186,154.402 198.421 C 153.943 199.321,152.820 199.437,152.262 198.641 C 151.612 197.713,151.627 174.358,152.278 173.639 C 152.800 173.062,153.403 173.026,154.094 173.531 M179.678 173.568 C 181.534 174.868,180.081 175.985,176.388 176.096 C 173.730 176.175,173.374 176.244,172.836 176.783 L 172.237 177.383 172.162 187.951 C 172.082 199.333,172.087 199.296,170.686 199.158 C 169.248 199.017,169.219 198.783,169.214 187.453 L 169.211 177.143 168.517 176.598 C 167.919 176.128,167.456 176.053,165.155 176.053 C 162.200 176.053,161.316 175.719,161.316 174.605 C 161.316 173.227,161.769 173.158,170.789 173.158 C 177.879 173.158,179.179 173.218,179.678 173.568 M205.205 173.568 C 205.887 174.045,205.969 175.046,205.376 175.639 C 205.050 175.965,204.349 176.053,202.075 176.053 C 199.359 176.053,199.148 176.091,198.541 176.699 L 197.895 177.344 197.895 187.365 C 197.895 198.564,197.812 199.211,196.382 199.211 C 194.982 199.211,195.000 199.351,195.000 188.355 C 195.000 175.427,195.229 176.053,190.499 176.053 C 187.565 176.053,186.842 175.761,186.842 174.579 C 186.842 173.231,187.327 173.158,196.316 173.158 C 203.406 173.158,204.705 173.218,205.205 173.568 M228.421 173.497 C 229.230 173.905,229.407 174.873,228.796 175.548 C 228.373 176.015,227.925 176.053,222.735 176.053 C 215.340 176.053,215.266 176.095,215.266 180.395 C 215.266 184.570,215.269 184.572,221.140 184.737 C 226.056 184.875,226.579 185.019,226.579 186.235 C 226.579 187.400,225.710 187.632,221.328 187.632 C 215.558 187.632,215.260 187.839,215.271 191.842 C 215.283 196.309,215.293 196.315,222.221 196.320 C 228.903 196.324,230.445 196.884,228.796 198.706 C 228.083 199.494,214.077 199.484,213.230 198.694 C 212.417 197.938,212.319 196.243,212.415 184.711 C 212.506 173.882,212.499 173.938,213.807 173.408 C 214.724 173.037,227.663 173.115,228.421 173.497 M246.456 173.445 C 253.682 174.781,256.396 183.451,251.150 188.442 C 250.478 189.082,249.648 189.866,249.306 190.185 C 248.351 191.077,248.521 191.582,250.789 194.605 C 252.903 197.422,253.302 198.435,252.579 199.158 C 251.671 200.066,250.936 199.562,248.435 196.316 C 244.860 191.676,244.370 191.316,241.642 191.316 C 238.951 191.316,238.684 191.648,238.684 194.993 C 238.684 198.023,238.441 198.866,237.499 199.103 C 235.772 199.536,235.789 199.662,235.798 186.472 C 235.807 174.040,235.797 174.151,236.974 173.476 C 237.658 173.083,244.381 173.061,246.456 173.445 M240.000 176.224 C 238.716 176.747,238.684 176.894,238.684 182.237 C 238.684 188.646,239.011 188.955,245.107 188.302 C 251.549 187.612,253.182 179.451,247.431 176.690 C 246.429 176.209,240.889 175.861,240.000 176.224 M247.961 177.697 C 250.293 179.280,251.060 181.930,249.882 184.338 C 248.626 186.906,247.103 187.632,242.975 187.632 C 238.956 187.632,238.947 187.620,238.947 182.176 C 238.947 176.576,238.734 176.842,243.233 176.842 L 246.700 176.842 247.961 177.697 M53.547 212.462 C 50.696 213.790,48.882 216.967,49.350 219.813 C 50.782 228.522,63.447 227.653,63.415 218.849 C 63.397 213.775,58.097 210.344,53.547 212.462 M95.921 212.146 C 94.777 212.772,94.737 213.007,94.737 219.088 C 94.737 224.402,94.779 224.957,95.218 225.354 C 96.300 226.333,97.159 225.623,97.364 223.583 L 97.500 222.237 98.543 222.237 C 99.515 222.237,99.684 222.359,101.011 224.013 C 103.924 227.646,105.559 225.909,102.843 222.066 C 102.601 221.724,102.632 221.501,102.987 221.013 C 103.236 220.673,103.728 219.997,104.081 219.510 C 105.909 216.994,104.345 213.015,101.183 212.137 C 99.842 211.765,96.608 211.770,95.921 212.146 M128.534 212.293 C 128.089 212.738,128.158 214.242,128.668 215.209 C 128.798 215.456,129.513 217.138,130.257 218.947 C 131.000 220.757,131.709 222.474,131.831 222.763 C 131.952 223.053,132.193 223.666,132.366 224.126 C 133.616 227.458,135.239 226.438,137.464 220.921 C 138.106 219.329,138.999 217.117,139.447 216.005 C 140.344 213.784,140.472 212.606,139.870 212.106 C 139.086 211.456,138.262 212.360,137.111 215.132 C 134.349 221.787,134.255 221.938,133.692 220.605 C 129.949 211.744,129.617 211.210,128.534 212.293 M153.816 212.482 C 146.840 215.714,149.029 225.912,156.688 225.863 C 159.272 225.846,161.023 224.916,162.524 222.763 C 163.422 221.473,164.030 217.872,163.447 217.289 C 163.288 217.130,163.158 216.784,163.158 216.521 C 163.158 213.350,157.357 210.842,153.816 212.482 M190.903 212.264 C 188.521 213.109,186.324 216.213,186.318 218.740 C 186.307 224.418,193.216 228.120,197.303 224.625 C 198.652 223.471,197.572 221.959,195.977 222.769 C 192.116 224.728,187.906 221.761,188.966 217.826 C 189.766 214.854,192.784 213.647,195.994 215.016 C 197.524 215.669,198.472 214.464,197.359 213.279 C 196.128 211.969,193.083 211.490,190.903 212.264 M209.022 212.356 C 208.086 213.228,207.769 223.667,208.632 225.197 C 209.024 225.893,216.392 226.135,217.053 225.474 C 218.283 224.244,217.039 223.421,213.950 223.421 C 210.643 223.421,210.526 223.373,210.526 221.998 C 210.526 220.483,210.842 220.263,213.020 220.263 C 215.037 220.263,216.053 219.824,216.053 218.951 C 216.053 217.986,215.337 217.632,213.385 217.632 C 211.062 217.632,210.526 217.363,210.526 216.196 C 210.526 214.514,210.592 214.474,213.383 214.470 C 216.857 214.464,218.167 213.687,216.956 212.349 C 216.260 211.580,209.849 211.585,209.022 212.356 M241.464 212.402 L 240.789 212.933 240.789 218.926 C 240.789 225.296,240.888 225.789,242.160 225.789 C 243.075 225.789,243.287 225.001,243.421 221.091 L 243.553 217.262 245.084 219.565 C 247.450 223.125,248.231 223.131,250.510 219.607 C 252.306 216.830,252.368 216.886,252.368 221.291 C 252.368 225.085,252.580 225.789,253.718 225.789 C 254.659 225.789,254.737 225.275,254.737 219.037 C 254.737 212.092,254.591 211.554,252.868 212.154 C 252.184 212.393,249.052 216.629,248.504 218.059 C 248.163 218.947,247.290 218.185,245.325 215.288 C 243.096 212.002,242.520 211.572,241.464 212.402 M270.306 212.263 C 269.639 212.730,269.081 213.850,267.109 218.684 C 266.372 220.493,265.664 222.211,265.537 222.500 C 264.245 225.449,265.927 227.376,267.389 224.621 C 268.105 223.270,268.386 223.160,271.053 223.180 C 273.507 223.199,273.839 223.329,274.713 224.620 C 276.422 227.144,277.939 225.452,276.614 222.500 C 275.816 220.722,274.737 218.055,274.737 217.861 C 274.737 217.636,273.514 214.876,272.691 213.244 C 272.460 212.784,271.991 212.281,271.649 212.125 C 270.885 211.777,271.019 211.763,270.306 212.263 M286.053 212.368 C 285.060 213.361,285.653 214.127,287.632 214.407 L 289.079 214.611 289.230 219.608 C 289.394 225.043,289.475 225.451,290.446 225.694 C 291.816 226.038,291.966 225.494,292.055 219.845 C 292.114 216.165,292.226 214.681,292.450 214.611 C 292.622 214.557,293.332 214.437,294.027 214.344 C 295.592 214.134,296.199 213.258,295.396 212.369 C 294.667 211.565,286.857 211.564,286.053 212.368 M306.842 212.368 C 305.834 213.377,306.446 214.159,308.421 214.387 C 310.321 214.606,310.254 214.406,310.259 219.952 C 310.263 225.091,310.406 225.789,311.447 225.789 C 312.481 225.789,312.631 225.082,312.635 220.215 C 312.639 214.798,312.699 214.474,313.682 214.474 C 316.050 214.474,317.320 213.342,316.080 212.338 C 315.128 211.567,307.619 211.592,306.842 212.368 M327.348 212.611 L 326.579 213.381 326.579 218.892 C 326.579 224.086,326.611 224.443,327.130 225.103 L 327.680 225.803 331.639 225.730 C 335.486 225.660,335.605 225.641,335.819 225.060 C 336.252 223.887,335.341 223.421,332.614 223.421 C 329.654 223.421,329.211 223.215,329.211 221.842 C 329.211 220.562,329.678 220.263,331.681 220.263 C 333.188 220.263,334.451 219.862,334.505 219.366 C 334.647 218.055,333.994 217.632,331.833 217.632 C 329.843 217.632,329.208 217.212,329.215 215.900 C 329.221 214.633,329.423 214.542,332.461 214.431 C 335.295 214.328,336.053 214.049,336.053 213.108 C 336.053 212.136,335.008 211.842,331.559 211.842 L 328.117 211.842 327.348 212.611 M347.062 212.244 C 345.373 213.161,345.658 225.789,347.368 225.789 C 348.091 225.789,348.533 225.046,348.680 223.583 C 348.934 221.061,350.497 221.503,352.999 224.803 C 354.810 227.192,356.576 225.605,354.868 223.122 C 353.752 221.499,353.754 221.556,354.759 220.477 C 357.380 217.661,356.086 213.171,352.343 212.098 C 351.008 211.715,347.876 211.802,347.062 212.244 M369.303 212.350 C 365.588 214.036,366.200 217.575,370.570 219.669 C 373.307 220.981,373.913 221.581,373.422 222.499 C 372.788 223.683,370.642 223.696,369.079 222.526 C 367.911 221.652,367.470 221.557,366.998 222.078 C 364.718 224.597,371.864 227.287,374.586 224.934 C 377.399 222.503,376.339 219.490,371.969 217.492 C 369.699 216.455,369.283 216.022,369.693 215.124 C 370.122 214.181,372.288 214.185,373.529 215.132 C 374.861 216.147,375.789 215.874,375.789 214.467 C 375.789 212.453,371.883 211.178,369.303 212.350 M29.751 212.483 C 29.245 213.093,29.571 213.880,31.228 216.053 C 33.538 219.082,33.684 219.459,33.684 222.383 C 33.684 225.025,33.992 225.789,35.054 225.789 C 35.901 225.789,36.172 224.980,36.273 222.137 L 36.373 219.342 37.536 217.632 C 38.176 216.691,39.111 215.346,39.613 214.642 C 40.647 213.194,40.654 213.170,40.178 212.519 C 39.525 211.626,38.445 212.214,36.761 214.381 C 34.930 216.739,34.885 216.736,32.946 214.211 C 31.363 212.148,30.442 211.650,29.751 212.483 M73.867 212.575 C 72.489 214.097,73.440 222.686,75.167 224.321 C 78.057 227.056,82.585 226.161,84.235 222.527 C 84.963 220.925,84.979 213.195,84.256 212.541 C 82.828 211.249,82.368 212.138,82.368 216.189 C 82.368 221.745,81.660 223.289,79.111 223.289 C 76.579 223.289,76.054 222.239,76.049 217.154 C 76.044 212.588,75.289 211.004,73.867 212.575 M174.211 212.763 C 174.066 213.144,173.947 215.921,173.947 218.947 C 173.947 225.080,174.092 225.868,175.196 225.741 C 176.177 225.628,176.254 225.134,176.254 218.947 C 176.254 212.761,176.177 212.267,175.196 212.154 C 174.620 212.087,174.421 212.211,174.211 212.763 M59.392 213.332 C 64.526 216.598,63.369 223.837,57.517 225.065 C 50.976 226.437,47.456 217.466,53.033 213.641 C 54.685 212.508,57.854 212.354,59.392 213.332 M101.993 213.302 C 104.261 214.621,104.696 217.760,102.895 219.806 C 101.637 221.234,101.590 221.884,102.639 223.271 C 103.544 224.466,103.601 224.737,102.951 224.737 C 102.693 224.737,102.288 224.411,102.051 224.013 C 99.964 220.511,96.335 220.428,96.320 223.882 C 96.315 224.861,95.928 225.024,95.692 224.145 C 95.488 223.382,95.485 214.262,95.688 213.501 C 95.958 212.495,100.368 212.356,101.993 213.302 M159.621 213.317 C 162.117 214.928,162.765 216.090,162.758 218.947 C 162.745 224.748,156.144 227.376,152.105 223.189 C 148.716 219.674,150.114 214.654,155.000 212.791 C 155.834 212.474,158.846 212.816,159.621 213.317 M196.248 213.324 C 197.247 213.900,197.438 214.638,196.513 214.351 C 192.289 213.041,190.176 213.654,188.658 216.631 C 186.511 220.839,191.537 226.096,195.526 223.816 C 196.346 223.347,197.183 223.311,197.047 223.750 C 196.843 224.408,194.909 225.116,193.289 225.124 C 187.119 225.155,184.745 216.870,189.978 213.567 C 191.654 212.509,194.633 212.393,196.248 213.324 M216.286 212.870 C 216.996 213.320,215.620 213.684,213.207 213.684 C 210.358 213.684,210.132 213.863,210.132 216.114 C 210.132 218.113,210.503 218.421,212.917 218.421 C 214.196 218.421,214.720 218.524,214.824 218.794 C 215.021 219.308,214.452 219.474,212.485 219.474 C 210.357 219.474,209.860 220.025,210.064 222.154 C 210.243 224.016,210.586 224.211,213.691 224.211 C 216.344 224.211,216.767 224.325,216.281 224.910 C 215.921 225.344,210.242 225.411,209.456 224.991 C 208.709 224.591,208.664 213.349,209.408 212.916 C 209.971 212.588,215.779 212.549,216.286 212.870 M271.927 213.244 C 271.996 213.414,272.848 215.447,273.820 217.763 C 276.387 223.879,276.667 224.737,276.098 224.737 C 275.850 224.737,275.430 224.336,275.167 223.847 C 273.925 221.542,267.731 221.740,266.829 224.114 C 266.699 224.456,266.399 224.737,266.162 224.737 C 265.567 224.737,265.755 224.093,267.742 219.342 C 268.650 217.171,269.546 214.980,269.733 214.474 C 270.302 212.930,271.522 212.247,271.927 213.244 M294.599 212.872 C 295.293 213.143,294.383 213.684,293.234 213.684 C 291.432 213.684,291.316 214.007,291.312 219.028 C 291.308 224.036,291.196 224.920,290.626 224.447 C 290.342 224.212,290.263 223.117,290.263 219.441 C 290.263 214.043,290.134 213.684,288.190 213.684 C 287.136 213.684,286.236 213.075,286.897 212.810 C 287.436 212.593,294.023 212.647,294.599 212.872 M315.395 212.884 C 316.039 213.148,314.939 213.684,313.754 213.684 C 312.238 213.684,312.106 214.115,312.102 219.054 C 312.098 223.735,311.977 224.825,311.480 224.661 C 311.281 224.595,311.141 222.903,311.053 219.497 C 310.905 213.824,310.857 213.688,308.963 213.680 C 307.743 213.675,307.060 213.274,307.632 212.899 C 308.104 212.589,314.643 212.576,315.395 212.884 M334.599 212.872 C 335.605 213.265,334.123 213.684,331.728 213.684 C 328.964 213.684,328.421 214.053,328.421 215.933 C 328.421 217.763,329.211 218.421,331.407 218.421 C 332.627 218.421,333.142 218.526,333.245 218.794 C 333.442 219.308,332.873 219.474,330.914 219.474 C 328.911 219.474,328.421 219.940,328.421 221.851 C 328.421 223.868,328.955 224.211,332.100 224.211 C 334.698 224.211,335.477 224.463,334.498 224.987 C 333.704 225.412,328.629 225.341,328.020 224.897 C 327.577 224.572,327.325 217.408,327.610 213.243 C 327.649 212.682,333.341 212.380,334.599 212.872 M353.277 213.306 C 355.988 215.082,356.203 217.491,353.893 220.207 C 352.966 221.297,352.973 221.692,353.947 223.158 C 355.124 224.928,354.865 225.805,353.617 224.278 C 350.519 220.492,347.895 220.126,347.895 223.481 C 347.895 224.572,347.822 224.762,347.434 224.687 C 346.733 224.552,346.593 213.708,347.284 213.017 C 347.921 212.380,352.177 212.585,353.277 213.306 M373.965 213.246 C 375.076 214.024,375.389 214.737,374.620 214.737 C 374.250 214.737,373.947 214.628,373.947 214.494 C 373.947 213.496,369.942 213.511,369.172 214.512 C 368.107 215.897,368.744 216.856,371.640 218.231 C 374.474 219.576,375.274 220.392,375.306 221.972 C 375.368 225.064,370.826 226.329,368.171 223.959 C 366.634 222.586,367.297 222.370,369.271 223.599 C 371.442 224.951,374.211 224.095,374.211 222.073 C 374.211 220.806,373.323 219.872,371.390 219.107 C 368.337 217.899,367.344 216.736,367.868 214.986 C 368.478 212.948,372.074 211.921,373.965 213.246 M32.257 214.539 C 34.482 217.503,35.254 217.818,36.378 216.218 C 36.696 215.765,37.079 215.254,37.228 215.082 C 37.378 214.910,37.838 214.348,38.251 213.832 C 38.664 213.317,39.108 212.895,39.238 212.895 C 39.825 212.895,39.343 213.930,37.777 216.033 C 35.679 218.852,35.527 219.248,35.522 221.925 C 35.518 224.123,35.288 224.946,34.766 224.623 C 34.587 224.513,34.474 223.537,34.474 222.107 C 34.474 219.246,34.427 219.121,32.267 216.193 C 30.663 214.018,30.154 212.895,30.774 212.895 C 30.910 212.895,31.578 213.635,32.257 214.539 M75.000 217.060 C 75.181 222.360,76.216 224.211,78.999 224.211 C 81.969 224.211,82.733 222.983,82.899 217.940 C 83.030 213.967,83.166 213.158,83.700 213.158 C 84.290 213.158,83.981 221.373,83.349 222.489 C 81.403 225.924,76.864 226.000,74.900 222.632 C 74.107 221.272,73.908 212.245,74.688 213.020 C 74.787 213.119,74.928 214.937,75.000 217.060 M130.065 213.882 C 130.301 214.424,130.741 215.520,131.044 216.316 C 131.346 217.112,131.702 218.000,131.835 218.289 C 131.968 218.579,132.324 219.408,132.626 220.132 C 133.994 223.406,134.532 223.428,135.801 220.263 C 136.120 219.467,136.642 218.224,136.961 217.500 C 137.280 216.776,137.826 215.444,138.174 214.539 C 138.620 213.381,138.944 212.895,139.272 212.895 C 139.759 212.895,139.892 213.402,139.517 213.829 C 139.396 213.966,139.085 214.671,138.826 215.395 C 138.567 216.118,138.206 217.066,138.024 217.500 C 136.828 220.355,135.801 222.904,135.501 223.759 C 134.882 225.522,133.589 225.394,132.921 223.503 C 132.726 222.952,132.338 221.967,132.058 221.316 C 131.266 219.470,131.145 219.175,130.539 217.632 C 130.227 216.836,129.874 215.947,129.756 215.658 C 129.080 214.014,128.947 213.623,128.947 213.277 C 128.947 212.533,129.641 212.908,130.065 213.882 M175.662 213.487 C 176.105 215.293,175.661 224.605,175.132 224.605 C 174.625 224.605,174.602 224.405,174.531 219.342 C 174.451 213.720,174.528 212.895,175.132 212.895 C 175.343 212.895,175.582 213.161,175.662 213.487 M244.639 215.526 C 247.908 220.563,247.739 220.545,250.568 216.184 C 252.803 212.737,253.665 212.069,254.045 213.487 C 254.323 214.527,254.229 223.948,253.934 224.498 C 253.355 225.581,253.158 224.592,253.154 220.577 C 253.148 214.927,252.764 214.575,250.526 218.172 C 248.149 221.993,247.675 222.229,246.430 220.210 C 242.865 214.431,242.708 214.437,242.584 220.373 C 242.501 224.390,242.405 224.953,241.860 224.616 C 241.555 224.428,241.449 214.066,241.744 213.297 C 242.116 212.328,243.011 213.018,244.639 215.526 M54.918 213.847 C 49.079 215.641,50.368 224.211,56.477 224.211 C 62.720 224.211,63.757 215.607,57.733 213.794 C 56.289 213.359,56.520 213.355,54.918 213.847 M155.921 213.595 C 151.881 214.504,150.022 218.540,152.171 221.741 C 154.808 225.669,160.187 224.850,161.702 220.290 C 162.839 216.865,159.350 212.825,155.921 213.595 M97.112 214.152 C 96.005 215.049,95.970 218.379,97.057 219.466 C 99.156 221.565,103.401 219.554,103.078 216.613 C 102.812 214.184,99.008 212.614,97.112 214.152 M348.480 214.094 C 347.604 214.707,347.597 218.913,348.471 219.727 C 350.413 221.537,354.651 219.352,354.389 216.676 C 354.146 214.199,350.564 212.634,348.480 214.094 M158.834 214.922 C 159.765 215.394,160.693 216.639,161.055 217.904 C 162.264 222.120,156.541 225.299,153.468 222.118 C 149.760 218.278,154.066 212.504,158.834 214.922 M58.642 214.927 C 60.512 216.000,61.426 218.549,60.627 220.465 C 58.416 225.774,50.604 223.205,52.098 217.660 C 52.829 214.945,56.212 213.532,58.642 214.927 M101.599 215.243 C 103.679 217.323,100.562 220.638,97.877 219.201 C 97.363 218.926,97.083 215.110,97.544 214.649 C 98.106 214.087,100.845 214.488,101.599 215.243 M353.003 215.283 C 354.637 217.226,353.187 219.474,350.299 219.474 C 348.892 219.474,348.684 219.133,348.684 216.833 C 348.684 214.413,348.633 214.474,350.678 214.474 C 352.190 214.474,352.376 214.538,353.003 215.283 M270.470 215.724 C 269.973 216.294,268.684 219.517,268.684 220.190 C 268.684 221.041,269.246 221.316,270.991 221.316 C 273.441 221.316,274.191 220.692,273.444 219.273 C 273.311 219.021,272.942 218.164,272.624 217.368 C 271.736 215.149,271.276 214.798,270.470 215.724 M272.577 219.963 C 272.421 220.786,269.474 220.723,269.474 219.897 C 269.474 219.537,269.579 219.177,269.708 219.097 C 269.836 219.017,270.019 218.643,270.114 218.265 C 270.209 217.886,270.486 217.273,270.729 216.902 L 271.171 216.227 271.915 217.879 C 272.324 218.788,272.622 219.725,272.577 219.963 " stroke="none" fill="#212d7e" fill-rule="evenodd"></path></g></svg>